<?xml version="1.0" standalone="no"?>
<!DOCTYPE svg PUBLIC "-//W3C//DTD SVG 20010904//EN"
 "http://www.w3.org/TR/2001/REC-SVG-20010904/DTD/svg10.dtd">
<svg version="1.0" xmlns="http://www.w3.org/2000/svg"
 width="110.000000pt" height="94.000000pt" viewBox="0 0 110.000000 94.000000"
 preserveAspectRatio="xMidYMid meet">

<g transform="translate(0.000000,94.000000) scale(0.100000,-0.100000)"
fill="#000000" stroke="none">
<path d="M486 924 c-110 -14 -125 -18 -113 -30 11 -12 240 20 245 34 4 14 11
14 -132 -4z"/>
<path d="M671 933 c-20 -4 -17 -8 26 -28 28 -12 66 -38 85 -57 l34 -35 42 21
c101 48 42 108 -103 105 -33 -1 -71 -4 -84 -6z"/>
<path d="M463 875 c-73 -17 -154 -67 -176 -107 -14 -26 -15 -40 -7 -67 14 -51
37 -69 112 -92 99 -29 216 -19 313 27 79 37 115 65 115 88 0 33 -96 12 -137
-30 -16 -16 -66 -30 -140 -39 -63 -8 -139 14 -173 50 l-22 23 28 35 c20 26 45
40 93 57 61 20 72 21 151 10 47 -6 87 -13 89 -16 7 -6 31 17 31 31 0 30 -190
50 -277 30z"/>
<path d="M948 823 c-9 -2 -24 -15 -33 -29 -14 -22 -14 -25 0 -30 9 -4 25 2 36
12 18 16 21 16 35 2 20 -19 12 -47 -23 -88 -24 -30 -26 -30 -50 -15 -14 9 -26
15 -29 13 -12 -12 -99 -211 -110 -253 -41 -149 12 -331 90 -311 35 9 92 61
121 110 25 44 55 170 55 234 0 54 -24 130 -51 158 l-22 24 20 23 c49 53 58
115 21 141 -23 16 -30 17 -60 9z m18 -274 c16 -17 19 -37 19 -108 0 -80 -3
-91 -36 -151 -50 -92 -101 -106 -137 -39 -19 35 -9 154 18 218 24 54 70 101
99 101 10 0 26 -9 37 -21z"/>
<path d="M868 743 c-22 -6 -23 -19 -2 -27 43 -17 127 -2 96 18 -13 8 -76 14
-94 9z"/>
<path d="M705 597 c-44 -18 -79 -37 -78 -42 1 -6 19 -12 38 -15 l36 -5 -83
-117 c-51 -72 -87 -113 -93 -108 -5 5 -37 61 -70 124 -33 64 -64 116 -68 116
-9 0 -67 -126 -70 -153 -4 -35 20 -29 36 10 l15 38 66 -133 c36 -72 70 -132
75 -132 5 0 17 12 26 27 10 14 28 36 40 47 12 12 67 80 123 152 83 109 102
139 107 178 9 56 7 57 -100 13z"/>
<path d="M17 582 c-10 -10 -17 -27 -17 -37 0 -17 1 -17 19 -1 20 18 35 56 22
56 -5 0 -15 -8 -24 -18z"/>
<path d="M60 559 c-32 -44 -45 -77 -36 -86 9 -10 53 36 70 72 32 67 11 75 -34
14z"/>
<path d="M152 563 c-38 -18 -90 -82 -124 -151 -31 -63 -38 -213 -13 -277 20
-54 92 -122 137 -130 69 -13 123 28 142 108 6 26 5 27 -29 27 -28 0 -37 -5
-45 -24 -20 -53 -91 -62 -133 -18 -35 37 -43 81 -23 120 26 50 74 66 116 40
23 -15 26 -12 35 29 l6 32 -36 -6 c-72 -12 -112 70 -64 131 45 57 102 56 126
-1 l14 -36 20 32 c57 94 -26 175 -129 124z"/>
<path d="M1066 391 c-4 -6 -10 -34 -13 -62 -8 -69 13 -58 22 12 7 50 3 70 -9
50z"/>
<path d="M1087 336 c-4 -15 -6 -31 -2 -34 10 -10 16 6 13 35 l-3 28 -8 -29z"/>
<path d="M643 293 c-12 -2 -27 -11 -34 -20 -11 -13 -10 -18 6 -29 31 -23 105
-1 105 31 0 11 -35 27 -50 24 -3 -1 -15 -4 -27 -6z"/>
<path d="M355 186 c-30 -22 -12 -46 35 -46 28 0 43 5 47 16 7 19 -20 44 -47
44 -9 0 -25 -6 -35 -14z"/>
</g>
</svg>
